<?xml version="1.0" standalone="no"?>
<!DOCTYPE svg PUBLIC "-//W3C//DTD SVG 20010904//EN"
 "http://www.w3.org/TR/2001/REC-SVG-20010904/DTD/svg10.dtd">
<svg version="1.0" xmlns="http://www.w3.org/2000/svg"
 width="260.000000pt" height="260.000000pt" viewBox="0 0 260.000000 260.000000"
 preserveAspectRatio="xMidYMid meet">
<metadata>
Created by potrace 1.11, written by Peter Selinger 2001-2013
</metadata>
<g transform="translate(0.000000,260.000000) scale(0.100000,-0.100000)"
fill="#000000" stroke="none">
<path d="M752 1822 c-29 -42 -98 -141 -152 -219 -55 -78 -100 -145 -100 -148
0 -3 19 -32 43 -64 23 -33 48 -67 55 -78 15 -22 204 -287 207 -291 7 -8 305
-7 305 0 0 7 -68 106 -97 143 -5 6 -52 72 -106 148 l-97 138 39 57 c21 31 88
129 150 216 61 87 111 162 111 166 0 4 -69 8 -152 8 l-153 1 -53 -77z"/>
<path d="M1774 1821 c-55 -14 -94 -44 -119 -95 -22 -43 -25 -64 -25 -148 0
-85 3 -105 25 -146 48 -93 76 -100 382 -102 219 0 249 -2 261 -17 16 -22 15
-74 -1 -98 -13 -17 -34 -18 -326 -18 -260 1 -314 -2 -326 -14 -11 -10 -15 -37
-15 -88 0 -61 3 -76 18 -84 10 -5 170 -8 379 -8 l361 2 43 30 c68 48 83 82 85
198 2 118 -13 181 -54 220 -51 49 -99 56 -364 56 -132 0 -243 2 -246 5 -8 9
-12 91 -4 103 6 9 88 13 310 14 250 1 306 4 318 16 10 10 14 37 14 88 0 61 -3
76 -18 84 -20 11 -652 12 -698 2z"/>
<path d="M1380 1600 c-13 -8 -15 -51 -17 -276 -2 -280 -6 -313 -46 -331 -13
-6 -121 -11 -252 -11 -283 -1 -277 0 -294 -11 -19 -12 -22 -145 -4 -171 13
-19 26 -19 301 -16 300 4 304 4 367 31 75 31 118 91 133 187 4 29 7 174 7 321
0 219 -3 270 -15 277 -19 11 -161 12 -180 0z"/>
<path d="M125 1430 c-2 -3 64 -101 146 -219 82 -117 149 -217 149 -222 0 -5
-26 -45 -57 -88 -32 -44 -64 -88 -71 -98 -7 -10 -48 -67 -92 -128 -43 -60 -79
-113 -80 -117 0 -8 293 -4 307 5 10 6 135 180 301 416 10 15 9 21 -5 39 -10
11 -38 51 -63 87 -25 36 -63 92 -86 123 -22 31 -62 89 -89 127 -26 39 -50 72
-52 75 -6 7 -304 7 -308 0z"/>
</g>
</svg>
